<?xml version="1.0" encoding="utf-8"?>
<!-- Generator: Adobe Illustrator 22.0.1, SVG Export Plug-In . SVG Version: 6.00 Build 0)  -->
<svg version="1.1" id="Capa_1" xmlns="http://www.w3.org/2000/svg" xmlns:xlink="http://www.w3.org/1999/xlink" x="0px" y="0px"
	 viewBox="0 0 74.6 91.3" style="enable-background:new 0 0 74.6 91.3;" xml:space="preserve">
<style type="text/css">
	.st0{fill-rule:evenodd;clip-rule:evenodd;fill:#FFFFFF;}
</style>
<path class="st0" d="M42,15.1c-6.1-0.1-10.2,4.4-10.3,9.8c0.1,4.1,2.3,7.2,6.2,10.3c1.6,2.4,1.2,7.5,3.4,6.2c1.2-0.7,3.8-4,5-5.5
	C53.7,27.4,52.8,15.3,42,15.1L42,15.1z M47,22.8c-0.4,1.7-1.6,3.1-3.1,3.8l1.7,3.8h-2.8l-1.4-3.2h-1.9l-0.7,3.2h-2.5l2.7-11.9h4.8
	C46,18.5,47.6,20.3,47,22.8L47,22.8z M39.9,25l1-4.4h2c1.3,0,1.8,0.9,1.5,2.2c-0.3,1.3-1.2,2.2-2.5,2.2H39.9z"/>
<g>
	<rect x="25.3" y="61.8" class="st0" width="30.2" height="5.7"/>
	<path class="st0" d="M66.4,49.8c-0.2-1.4-1.4-2.3-2.8-2.3c0,0,0,0,0,0H11.7c0,0,0,0-0.1,0c-1.4,0-2.5,1-2.8,2.3L3.3,77.8
		c0,0.2-0.1,0.4-0.1,0.5c0,1.6,1.3,2.8,2.8,2.8c0,0,0,0,0,0h8.3l0.1,0.3c0.2,1.4,1.4,2.3,2.8,2.3c0,0,0,0,0,0H69h0
		c1.6,0,2.8-1.3,2.8-2.8c0-0.2,0-0.3,0-0.5L66.4,49.8L66.4,49.8z M9.6,75.5l2-10.2l1.8,10.2H9.6L9.6,75.5z M19.6,78.2l-4.5-25.1h46
		l4.5,25.1L19.6,78.2z"/>
</g>
</svg>
